<svg width="1792" height="1536" viewBox="0 0 1792 1536" fill="none" xmlns="http://www.w3.org/2000/svg">
<g clip-path="url(#clip0_1767_420)">
<path d="M1650.75 589.248L1312 928L927.552 218.24C917.632 221.76 907.136 224 896 224C884.864 224 874.368 221.76 864.448 218.24L480 928L141.248 589.248C132.849 597.099 122.474 602.519 111.232 604.928L288 1312H1504L1680.77 604.928C1669.53 602.519 1659.15 597.099 1650.75 589.248Z" fill="#FECB5B"/>
<path d="M224 1504L288 1312H1504L1568 1504H224Z" fill="#FCD770"/>
<path d="M1344 384C1379.35 384 1408 355.346 1408 320C1408 284.654 1379.35 256 1344 256C1308.65 256 1280 284.654 1280 320C1280 355.346 1308.65 384 1344 384Z" fill="#F8B545"/>
<path d="M1696 608C1731.35 608 1760 579.346 1760 544C1760 508.654 1731.35 480 1696 480C1660.65 480 1632 508.654 1632 544C1632 579.346 1660.65 608 1696 608Z" fill="#FECB5B"/>
<path d="M896 1120C966.692 1120 1024 1062.69 1024 992C1024 921.308 966.692 864 896 864C825.308 864 768 921.308 768 992C768 1062.69 825.308 1120 896 1120Z" fill="#EF4A4C"/>
<path d="M448 384C483.346 384 512 355.346 512 320C512 284.654 483.346 256 448 256C412.654 256 384 284.654 384 320C384 355.346 412.654 384 448 384Z" fill="#F8B545"/>
<path d="M465.728 380.416C460.032 382.08 454.272 384 448 384C443.264 384 439.04 382.272 434.56 381.312L276.992 725.056L480 928L632.256 646.848L465.728 380.416ZM1357.44 381.312C1352.96 382.272 1348.74 384 1344 384C1337.73 384 1331.97 382.08 1326.27 380.416L1159.74 646.848L1312 928L1514.94 725.056L1357.44 381.312Z" fill="#F8B545"/>
<path d="M96 608C131.346 608 160 579.346 160 544C160 508.654 131.346 480 96 480C60.6538 480 32 508.654 32 544C32 579.346 60.6538 608 96 608Z" fill="#FECB5B"/>
<path d="M896 224C949.019 224 992 181.019 992 128C992 74.9807 949.019 32 896 32C842.981 32 800 74.9807 800 128C800 181.019 842.981 224 896 224Z" fill="#FECB5B"/>
<path d="M1568 1536H224C218.931 1536.01 213.932 1534.81 209.422 1532.49C204.913 1530.18 201.024 1526.82 198.08 1522.69C195.098 1518.59 193.141 1513.84 192.373 1508.82C191.604 1503.81 192.047 1498.69 193.664 1493.89L257.664 1301.89C259.785 1295.52 263.856 1289.98 269.301 1286.05C274.745 1282.12 281.287 1280.01 288 1280H1504C1517.76 1280 1529.98 1288.83 1534.4 1301.89L1598.4 1493.89C1600.02 1498.7 1600.47 1503.83 1599.7 1508.85C1598.94 1513.87 1596.99 1518.64 1594.02 1522.76C1591.05 1526.87 1587.14 1530.22 1582.61 1532.53C1578.09 1534.83 1573.08 1536.02 1568 1536ZM268.352 1472H1523.58L1480.9 1344H311.04L268.352 1472ZM1344 416C1291.07 416 1248 372.928 1248 320C1248 267.072 1291.07 224 1344 224C1396.93 224 1440 267.072 1440 320C1440 372.928 1396.93 416 1344 416ZM1344 288C1326.4 288 1312 302.4 1312 320C1312 337.6 1326.4 352 1344 352C1361.6 352 1376 337.6 1376 320C1376 302.4 1361.6 288 1344 288ZM1696 640C1643.07 640 1600 596.928 1600 544C1600 491.072 1643.07 448 1696 448C1748.93 448 1792 491.072 1792 544C1792 596.928 1748.93 640 1696 640ZM1696 512C1678.4 512 1664 526.4 1664 544C1664 561.6 1678.4 576 1696 576C1713.6 576 1728 561.6 1728 544C1728 526.4 1713.6 512 1696 512ZM896 1152C807.744 1152 736 1080.26 736 992C736 903.744 807.744 832 896 832C984.256 832 1056 903.744 1056 992C1056 1080.26 984.256 1152 896 1152ZM896 896C843.072 896 800 939.072 800 992C800 1044.93 843.072 1088 896 1088C948.928 1088 992 1044.93 992 992C992 939.072 948.928 896 896 896ZM448 416C395.072 416 352 372.928 352 320C352 267.072 395.072 224 448 224C500.928 224 544 267.072 544 320C544 372.928 500.928 416 448 416ZM448 288C430.4 288 416 302.4 416 320C416 337.6 430.4 352 448 352C465.6 352 480 337.6 480 320C480 302.4 465.6 288 448 288Z" fill="#004463"/>
<path d="M480 960C471.511 959.994 463.369 956.636 457.344 950.656L254.336 747.648C249.724 743.024 246.634 737.103 245.478 730.675C244.323 724.247 245.158 717.62 247.872 711.68L405.44 368C408.416 361.367 413.583 355.96 420.074 352.685C426.565 349.411 433.985 348.468 441.088 350.016L443.648 383.552L449.664 352.128C451.363 351.267 453.172 350.642 455.04 350.272C468.864 346.112 485.312 351.296 492.864 363.52L659.456 629.952C662.47 634.744 664.154 640.251 664.334 645.909C664.514 651.567 663.183 657.171 660.48 662.144L508.16 943.296C505.786 947.669 502.429 951.431 498.353 954.286C494.277 957.14 489.593 959.009 484.672 959.744C483.119 959.89 481.56 959.975 480 960ZM315.392 718.144L472.32 875.072L595.328 648L452.352 419.328L315.392 718.144ZM1312 960C1306.24 959.992 1300.59 958.43 1295.65 955.478C1290.7 952.527 1286.65 948.296 1283.9 943.232L1131.58 662.08C1128.88 657.107 1127.55 651.503 1127.73 645.845C1127.91 640.187 1129.59 634.68 1132.61 629.888L1299.2 363.456C1302.88 357.527 1308.41 352.97 1314.93 350.484C1321.45 347.999 1328.6 347.722 1335.3 349.696C1339.46 350.976 1342.85 352 1344 352L1350.91 350.016C1358.01 348.472 1365.42 349.417 1371.9 352.692C1378.38 355.967 1383.53 361.372 1386.5 368L1544.06 711.68C1546.8 717.616 1547.64 724.248 1546.49 730.68C1545.33 737.112 1542.23 743.034 1537.6 747.648L1334.59 950.656C1331.62 953.621 1328.1 955.972 1324.23 957.575C1320.35 959.179 1316.19 960.003 1312 960ZM1196.67 648L1319.68 875.072L1476.61 718.144L1339.65 419.328L1196.67 648ZM96 640C43.072 640 0 596.928 0 544C0 491.072 43.072 448 96 448C148.928 448 192 491.072 192 544C192 596.928 148.928 640 96 640ZM96 512C78.4 512 64 526.4 64 544C64 561.6 78.4 576 96 576C113.6 576 128 561.6 128 544C128 526.4 113.6 512 96 512ZM896 256C825.408 256 768 198.592 768 128C768 57.408 825.408 0 896 0C966.592 0 1024 57.408 1024 128C1024 198.592 966.592 256 896 256ZM896 64C879.026 64 862.748 70.7429 850.745 82.7452C838.743 94.7475 832 111.026 832 128C832 144.974 838.743 161.252 850.745 173.255C862.748 185.257 879.026 192 896 192C912.974 192 929.253 185.257 941.255 173.255C953.257 161.252 960 144.974 960 128C960 111.026 953.257 94.7475 941.255 82.7452C929.253 70.7429 912.974 64 896 64Z" fill="#004463"/>
<path d="M1504 1344H288C280.862 1344 273.93 1341.61 268.305 1337.21C262.681 1332.82 258.687 1326.67 256.96 1319.74L80.192 612.671C78.1577 604.457 79.46 595.771 83.8139 588.515C88.1678 581.258 95.2188 576.022 103.424 573.951C109.023 572.864 114.248 570.351 118.592 566.655C124.593 560.656 132.731 557.286 141.216 557.286C149.701 557.286 157.839 560.656 163.84 566.655L472.256 875.071L836.288 203.007C839.918 196.327 845.809 191.158 852.904 188.425C859.999 185.693 867.835 185.576 875.008 188.095C888.466 193.344 903.406 193.344 916.864 188.095C924.037 185.576 931.873 185.693 938.968 188.425C946.063 191.158 951.954 196.327 955.584 203.007L1319.62 875.071L1628.03 566.655C1634.03 560.656 1642.17 557.286 1650.66 557.286C1659.14 557.286 1667.28 560.656 1673.28 566.655C1677.62 570.351 1682.85 572.864 1688.45 573.951C1705.6 578.239 1715.97 595.583 1711.68 612.671L1534.91 1319.74C1533.23 1326.67 1529.27 1332.83 1523.66 1337.23C1518.05 1341.63 1511.13 1344.01 1504 1344ZM313.024 1280H1479.04L1636.99 648.319L1334.66 950.655C1331.14 954.176 1326.84 956.827 1322.12 958.397C1317.39 959.967 1312.36 960.412 1307.44 959.697C1302.51 958.983 1297.81 957.128 1293.73 954.28C1289.64 951.433 1286.28 947.671 1283.9 943.295L911.04 254.975C901.037 256.319 890.899 256.319 880.896 254.975L508.096 943.231C505.722 947.604 502.365 951.366 498.289 954.221C494.213 957.075 489.529 958.944 484.608 959.679C479.67 960.38 474.637 959.924 469.906 958.346C465.174 956.769 460.874 954.114 457.344 950.591L155.072 648.319L313.024 1280Z" fill="#004463"/>
</g>
<defs>
<clipPath id="clip0_1767_420">
<rect width="1792" height="1536" fill="white"/>
</clipPath>
</defs>
</svg>
